<svg width="31" height="27" viewBox="0 0 31 27" fill="none" xmlns="http://www.w3.org/2000/svg">
<path d="M9.30001 13.5C9.29818 13.1471 9.21654 12.7979 9.05974 12.4725C8.90294 12.1471 8.67406 11.8518 8.38618 11.6034C8.0983 11.3551 7.75705 11.1586 7.38194 11.0251C7.00683 10.8916 6.60521 10.8239 6.20001 10.8256C4.48881 10.8256 3.10001 12.0231 3.10001 13.5C3.10204 13.8528 3.18384 14.2018 3.34073 14.5271C3.49762 14.8523 3.72653 15.1475 4.01439 15.3957C4.30225 15.6439 4.64343 15.8403 5.01844 15.9737C5.39345 16.107 5.79495 16.1748 6.20001 16.173C7.91276 16.173 9.30001 14.9769 9.30001 13.5ZM12.7751 7.83L10.5834 9.72C11.1586 10.214 11.6153 10.8026 11.927 11.4516C12.2388 12.1006 12.3993 12.7971 12.3993 13.5007C12.3993 14.2042 12.2388 14.9007 11.927 15.5497C11.6153 16.1988 11.1586 16.7874 10.5834 17.2813L12.7751 19.17C13.6378 18.4292 14.3228 17.5465 14.7904 16.5731C15.258 15.5997 15.4987 14.5551 15.4987 13.5C15.4987 12.4449 15.258 11.4003 14.7904 10.4269C14.3228 9.4535 13.6378 8.57077 12.7751 7.83ZM17.1616 4.05L14.9699 5.94C16.1199 6.92768 17.0331 8.10456 17.6564 9.40227C18.2797 10.7 18.6006 12.0926 18.6006 13.4993C18.6006 14.906 18.2797 16.2987 17.6564 17.5964C17.0331 18.8941 16.1199 20.071 14.9699 21.0586L17.1616 22.95C18.5992 21.7153 19.7408 20.244 20.5199 18.6217C21.2991 16.9995 21.7003 15.2585 21.7003 13.5C21.7003 11.7415 21.2991 10.0005 20.5199 8.37824C19.7408 6.75596 18.5992 5.28472 17.1616 4.05V4.05ZM21.545 0.268646L19.3533 2.15865C21.0787 3.64032 22.4488 5.40589 23.384 7.35275C24.3191 9.29962 24.8007 11.3889 24.8007 13.4993C24.8007 15.6097 24.3191 17.699 23.384 19.6459C22.4488 21.5927 21.0787 23.3583 19.3533 24.84L21.545 26.73C23.558 25.0014 25.1564 22.9416 26.2474 20.6703C27.3384 18.3989 27.9003 15.9614 27.9003 13.4993C27.9003 11.0372 27.3384 8.5997 26.2474 6.32838C25.1564 4.05706 23.558 1.99725 21.545 0.268646V0.268646Z" fill="white"/>
</svg>
